<svg xmlns="http://www.w3.org/2000/svg" width="800" height="500" viewBox="0 0 800 500">
  <defs>
    <linearGradient id="dbg" x1="0%" y1="0%" x2="100%" y2="100%">
      <stop offset="0%" style="stop-color:#0f172a"/>
      <stop offset="100%" style="stop-color:#1e293b"/>
    </linearGradient>
  </defs>

  <rect width="800" height="500" fill="url(#dbg)" rx="12"/>
  <rect x="0" y="0" width="800" height="38" rx="12" fill="#1e293b"/>
  <rect x="0" y="20" width="800" height="18" fill="#1e293b"/>

  <circle cx="18" cy="19" r="4.5" fill="#ef4444"/>
  <circle cx="34" cy="19" r="4.5" fill="#f59e0b"/>
  <circle cx="50" cy="19" r="4.5" fill="#22c55e"/>
  <text x="400" y="24" text-anchor="middle" font-family="monospace" font-size="11" fill="#94a3b8">Pipeline Dashboard — Evidence Quality Monitor</text>

  <!-- LEFT PANEL: Coverage Scores -->
  <rect x="20" y="52" width="370" height="200" rx="6" fill="#1e293b" stroke="#334155" stroke-width="1"/>
  <text x="35" y="74" font-family="monospace" font-size="10" font-weight="bold" fill="#e2e8f0">SECTION COVERAGE</text>

  <!-- Bar: Introduction -->
  <text x="35" y="100" font-family="monospace" font-size="9" fill="#94a3b8">Introduction</text>
  <rect x="140" y="90" width="230" height="10" rx="4" fill="#334155"/>
  <rect x="140" y="90" width="220" height="10" rx="4" fill="#22c55e"/>
  <text x="380" y="100" font-family="monospace" font-size="9" font-weight="bold" fill="#22c55e">96%</text>

  <!-- Bar: Methodology -->
  <text x="35" y="122" font-family="monospace" font-size="9" fill="#94a3b8">Methodology</text>
  <rect x="140" y="112" width="230" height="10" rx="4" fill="#334155"/>
  <rect x="140" y="112" width="200" height="10" rx="4" fill="#22c55e"/>
  <text x="380" y="122" font-family="monospace" font-size="9" font-weight="bold" fill="#22c55e">87%</text>

  <!-- Bar: Results -->
  <text x="35" y="144" font-family="monospace" font-size="9" fill="#94a3b8">Results</text>
  <rect x="140" y="134" width="230" height="10" rx="4" fill="#334155"/>
  <rect x="140" y="134" width="165" height="10" rx="4" fill="#f59e0b"/>
  <text x="380" y="144" font-family="monospace" font-size="9" font-weight="bold" fill="#f59e0b">72%</text>

  <!-- Bar: Discussion -->
  <text x="35" y="166" font-family="monospace" font-size="9" fill="#94a3b8">Discussion</text>
  <rect x="140" y="156" width="230" height="10" rx="4" fill="#334155"/>
  <rect x="140" y="156" width="90" height="10" rx="4" fill="#ef4444"/>
  <text x="380" y="166" font-family="monospace" font-size="9" font-weight="bold" fill="#ef4444">39%</text>

  <!-- Bar: Conclusion -->
  <text x="35" y="188" font-family="monospace" font-size="9" fill="#94a3b8">Conclusion</text>
  <rect x="140" y="178" width="230" height="10" rx="4" fill="#334155"/>
  <rect x="140" y="178" width="135" height="10" rx="4" fill="#f59e0b"/>
  <text x="380" y="188" font-family="monospace" font-size="9" font-weight="bold" fill="#f59e0b">59%</text>

  <!-- Threshold line -->
  <line x1="140" y1="195" x2="370" y2="195" stroke="#475569" stroke-width="0.5" stroke-dasharray="3,3"/>
  <text x="140" y="208" font-family="monospace" font-size="7" fill="#475569">▸ Threshold: 50% — sections below will flag insufficient evidence</text>

  <!-- RIGHT PANEL: Quality Metrics -->
  <rect x="410" y="52" width="370" height="200" rx="6" fill="#1e293b" stroke="#334155" stroke-width="1"/>
  <text x="425" y="74" font-family="monospace" font-size="10" font-weight="bold" fill="#e2e8f0">QUALITY METRICS</text>

  <g transform="translate(0, 0)">
    <text x="425" y="100" font-family="monospace" font-size="9" fill="#94a3b8">Evidence Fidelity</text>
    <rect x="555" y="90" width="210" height="8" rx="4" fill="#334155"/>
    <rect x="555" y="90" width="200" height="8" rx="4" fill="#38bdf8"/>
    <text x="770" y="99" font-family="monospace" font-size="9" font-weight="bold" fill="#38bdf8">0.95</text>

    <text x="425" y="120" font-family="monospace" font-size="9" fill="#94a3b8">Fact Utilization</text>
    <rect x="555" y="110" width="210" height="8" rx="4" fill="#334155"/>
    <rect x="555" y="110" width="175" height="8" rx="4" fill="#818cf8"/>
    <text x="770" y="119" font-family="monospace" font-size="9" font-weight="bold" fill="#818cf8">0.83</text>

    <text x="425" y="140" font-family="monospace" font-size="9" fill="#94a3b8">Source Coverage</text>
    <rect x="555" y="130" width="210" height="8" rx="4" fill="#334155"/>
    <rect x="555" y="130" width="160" height="8" rx="4" fill="#34d399"/>
    <text x="770" y="139" font-family="monospace" font-size="9" font-weight="bold" fill="#34d399">0.76</text>

    <text x="425" y="160" font-family="monospace" font-size="9" fill="#94a3b8">Traceability</text>
    <rect x="555" y="150" width="210" height="8" rx="4" fill="#334155"/>
    <rect x="555" y="150" width="190" height="8" rx="4" fill="#f59e0b"/>
    <text x="770" y="159" font-family="monospace" font-size="9" font-weight="bold" fill="#f59e0b">0.90</text>

    <text x="425" y="180" font-family="monospace" font-size="9" fill="#94a3b8">Hallucination Risk</text>
    <rect x="555" y="170" width="210" height="8" rx="4" fill="#334155"/>
    <rect x="555" y="170" width="35" height="8" rx="4" fill="#ef4444"/>
    <text x="770" y="179" font-family="monospace" font-size="9" font-weight="bold" fill="#ef4444">0.17</text>

    <text x="425" y="200" font-family="monospace" font-size="9" fill="#94a3b8">Technical Depth</text>
    <rect x="555" y="190" width="210" height="8" rx="4" fill="#334155"/>
    <rect x="555" y="190" width="160" height="8" rx="4" fill="#a78bfa"/>
    <text x="770" y="199" font-family="monospace" font-size="9" font-weight="bold" fill="#a78bfa">0.74</text>
  </g>

  <!-- BOTTOM PANEL: Status -->
  <rect x="20" y="268" width="760" height="100" rx="6" fill="#1e293b" stroke="#334155" stroke-width="1"/>

  <!-- Pipeline phase indicators -->
  <text x="35" y="290" font-family="monospace" font-size="10" font-weight="bold" fill="#e2e8f0">PIPELINE STATUS</text>

  <g transform="translate(35, 310)">
    <rect x="0" y="0" width="65" height="22" rx="4" fill="#22c55e" opacity="0.2"/>
    <text x="32" y="15" text-anchor="middle" font-family="monospace" font-size="8" fill="#22c55e">Plan ✓</text>
    <rect x="75" y="0" width="80" height="22" rx="4" fill="#22c55e" opacity="0.2"/>
    <text x="115" y="15" text-anchor="middle" font-family="monospace" font-size="8" fill="#22c55e">Research ✓</text>
    <rect x="165" y="0" width="75" height="22" rx="4" fill="#22c55e" opacity="0.2"/>
    <text x="202" y="15" text-anchor="middle" font-family="monospace" font-size="8" fill="#22c55e">KG Build ✓</text>
    <rect x="250" y="0" width="80" height="22" rx="4" fill="#22c55e" opacity="0.2"/>
    <text x="290" y="15" text-anchor="middle" font-family="monospace" font-size="8" fill="#22c55e">Extract ✓</text>

    <rect x="340" y="0" width="75" height="22" rx="4" fill="#f59e0b" opacity="0.2"/>
    <text x="377" y="15" text-anchor="middle" font-family="monospace" font-size="8" fill="#f59e0b">Coverage ◉</text>

    <rect x="425" y="0" width="70" height="22" rx="4" fill="#475569" opacity="0.3"/>
    <text x="460" y="15" text-anchor="middle" font-family="monospace" font-size="8" fill="#64748b">Generate</text>
    <rect x="505" y="0" width="65" height="22" rx="4" fill="#475569" opacity="0.3"/>
    <text x="537" y="15" text-anchor="middle" font-family="monospace" font-size="8" fill="#64748b">Review</text>
    <rect x="580" y="0" width="75" height="22" rx="4" fill="#475569" opacity="0.3"/>
    <text x="617" y="15" text-anchor="middle" font-family="monospace" font-size="8" fill="#64748b">Validate</text>
    <rect x="665" y="0" width="60" height="22" rx="4" fill="#475569" opacity="0.3"/>
    <text x="695" y="15" text-anchor="middle" font-family="monospace" font-size="8" fill="#64748b">Export</text>
  </g>

  <!-- Stats row -->
  <g transform="translate(35, 345)">
    <rect x="0" y="0" width="90" height="18" rx="3" fill="#334155"/>
    <text x="45" y="12" text-anchor="middle" font-family="monospace" font-size="8" fill="#94a3b8">28 sources</text>
    <rect x="100" y="0" width="90" height="18" rx="3" fill="#334155"/>
    <text x="145" y="12" text-anchor="middle" font-family="monospace" font-size="8" fill="#94a3b8">142 facts</text>
    <rect x="200" y="0" width="100" height="18" rx="3" fill="#334155"/>
    <text x="250" y="12" text-anchor="middle" font-family="monospace" font-size="8" fill="#94a3b8">42 pages</text>
    <rect x="310" y="0" width="100" height="18" rx="3" fill="#334155"/>
    <text x="360" y="12" text-anchor="middle" font-family="monospace" font-size="8" fill="#94a3b8">97% citations</text>
  </g>

  <!-- GENERATION MODE indicator -->
  <rect x="20" y="383" width="760" height="45" rx="6" fill="#1e293b" stroke="#334155" stroke-width="1"/>
  <rect x="35" y="395" width="14" height="14" rx="3" fill="#22c55e"/>
  <text x="55" y="407" font-family="monospace" font-size="10" fill="#e2e8f0">Generation Mode:</text>
  <text x="195" y="407" font-family="monospace" font-size="10" font-weight="bold" fill="#22c55e">NORMAL</text>
  <text x="265" y="407" font-family="monospace" font-size="9" fill="#64748b">— Sufficient evidence for full generation across 3/5 sections</text>
  <text x="35" y="422" font-family="monospace" font-size="8" fill="#f59e0b">⚠ Discussion section (39%) and Conclusion (59%) below threshold — cautious generation</text>

  <!-- Footer -->
  <text x="400" y="485" text-anchor="middle" font-family="monospace" font-size="9" fill="#475569">Evidence-Constrained Generation • Real-Time Quality Monitoring • Explainability Dashboard</text>
</svg>
